<svg width="20" height="20" viewBox="0 0 20 20" fill="none" xmlns="http://www.w3.org/2000/svg">
<path d="M7 19V13C7 12.4696 7.21071 11.9609 7.58579 11.5858C7.96086 11.2107 8.46957 11 9 11H11C11.5304 11 12.0391 11.2107 12.4142 11.5858C12.7893 11.9609 13 12.4696 13 13V19M3 10H1L10 1L19 10H17V17C17 17.5304 16.7893 18.0391 16.4142 18.4142C16.0391 18.7893 15.5304 19 15 19H5C4.46957 19 3.96086 18.7893 3.58579 18.4142C3.21071 18.0391 3 17.5304 3 17V10Z" stroke="#354052" stroke-width="2" stroke-linecap="round" stroke-linejoin="round"/>
</svg>
